<svg xmlns="http://www.w3.org/2000/svg" viewBox="0 0 512 512">
  <defs>
    <linearGradient id="bg" x1="0%" y1="0%" x2="100%" y2="100%">
      <stop offset="0%" style="stop-color:#ea580c"/>
      <stop offset="50%" style="stop-color:#dc2626"/>
      <stop offset="100%" style="stop-color:#1c1917"/>
    </linearGradient>
  </defs>
  <circle cx="256" cy="256" r="256" fill="url(#bg)"/>
  <circle cx="256" cy="256" r="213" fill="none" stroke="rgba(255,255,255,0.2)" stroke-width="8"/>
  <circle cx="256" cy="256" r="173" fill="none" stroke="rgba(255,255,255,0.1)" stroke-width="3"/>
  <path d="M256 106c-21 53-64 93-64 147c0 48 32 85 64 107c32-22 64-59 64-107c0-54-43-94-64-147z" fill="white" fill-opacity="0.9"/>
  <path d="M256 160c-11 32-37 59-37 93c0 32 19 53 37 67c18-14 37-35 37-67c0-34-26-61-37-93z" fill="#f97316" fill-opacity="0.6"/>
</svg>
